# xmcd CD database file
#
# Track frame offsets:
#	150
#	17712
#	33452
#	49195
#	69105
#	84302
#	106442
#	124227
#	142330
#	166812
#	183877
#
# Disc length: 2644 seconds
#
# Revision: 3
# Processed by: cddbd v1.5.1PL2 Copyright (c) Steve Scherf et al.
# Submitted via: CDex 1.40Release
#
DISCID=8f0a520b
DTITLE=Shannon Curfman - Loud Guitars, Big Suspicions
DYEAR=1999
DGENRE=Blues
TTITLE0=Few And Far Between
TTITLE1=No Riders
TTITLE2=True Friends
TTITLE3=If You Change Your Mind
TTITLE4=Love Me Like That
TTITLE5=Playing With Fire
TTITLE6=I Don't Make Promises (I Can't Break)
TTITLE7=Hard To Make A Stand
TTITLE8=The Weight
TTITLE9=Never Enough
TTITLE10=I'm Coming Home
EXTD=YEAR: 1999 ID3G: 0
EXTT0=
EXTT1=
EXTT2=
EXTT3=
EXTT4=
EXTT5=
EXTT6=
EXTT7=
EXTT8=
EXTT9=
EXTT10=
PLAYORDER=
